<svg xmlns="http://www.w3.org/2000/svg" xmlns:xlink="http://www.w3.org/1999/xlink" viewBox="0 0 1600 900"><defs><style>.cls-1{fill:url(#linear-gradient);}.cls-2{fill:none;}.cls-3{fill:#6ba9dc;}.cls-4{mask:url(#mask);}.cls-5{fill:url(#R_for_the_Rest_of_Us_16x9_Hex);}</style><linearGradient id="linear-gradient" x1="1828.8" y1="2676.91" x2="239.09" y2="1759.09" gradientTransform="translate(-233.94 -1768)" gradientUnits="userSpaceOnUse"><stop offset="0" stop-color="#fff"/><stop offset="0.01" stop-color="#f6f6f6"/><stop offset="0.05" stop-color="#c8c8c8"/><stop offset="0.09" stop-color="#9d9d9d"/><stop offset="0.14" stop-color="#777"/><stop offset="0.2" stop-color="#575757"/><stop offset="0.25" stop-color="#3b3b3b"/><stop offset="0.32" stop-color="#252525"/><stop offset="0.4" stop-color="#141414"/><stop offset="0.49" stop-color="#090909"/><stop offset="0.63" stop-color="#020202"/><stop offset="1"/></linearGradient><mask id="mask" x="-66.35" y="0" width="1668.41" height="900" maskUnits="userSpaceOnUse"><rect class="cls-1" width="1600" height="900"/></mask><pattern id="R_for_the_Rest_of_Us_16x9_Hex" data-name="R for the Rest of Us 16x9 Hex" width="65.16" height="112.86" patternTransform="translate(2366.18 -1134.1) rotate(-180)" patternUnits="userSpaceOnUse" viewBox="0 0 65.16 112.86"><rect class="cls-2" width="65.16" height="112.86"/><path class="cls-3" d="M67.16,150.7l29.77-17.19a4,4,0,0,0,2-3.46V95.67a4,4,0,0,0-2-3.46L67.16,75a4,4,0,0,0-4,0L33.39,92.21a4,4,0,0,0-2,3.46v34.38a4,4,0,0,0,2,3.46L63.16,150.7a4,4,0,0,0,4,0ZM65.93,77.14,95.71,94.33a1.57,1.57,0,0,1,.77,1.34v34.38a1.57,1.57,0,0,1-.77,1.34L65.93,148.58a1.57,1.57,0,0,1-1.54,0L34.61,131.39a1.57,1.57,0,0,1-.77-1.34V95.67a1.57,1.57,0,0,1,.77-1.34L64.39,77.14a1.58,1.58,0,0,1,1.54,0Z"/><path class="cls-3" d="M67,141.41,89,128.74a3.71,3.71,0,0,0,1.86-3.22V100.2A3.71,3.71,0,0,0,89,97L67,84.31a3.74,3.74,0,0,0-3.72,0L41.37,97a3.71,3.71,0,0,0-1.86,3.22v25.32a3.71,3.71,0,0,0,1.86,3.22L63.3,141.41a3.78,3.78,0,0,0,3.72,0Zm-1.23-55L87.73,99.1a1.28,1.28,0,0,1,.63,1.1v25.32a1.28,1.28,0,0,1-.63,1.1L65.79,139.28a1.24,1.24,0,0,1-1.26,0L42.59,126.62a1.28,1.28,0,0,1-.63-1.1V100.2a1.28,1.28,0,0,1,.63-1.1L64.53,86.44a1.25,1.25,0,0,1,1.26,0Z"/><path class="cls-3" d="M66.88,132.1,81,124a3.44,3.44,0,0,0,1.72-3V104.73a3.42,3.42,0,0,0-1.72-3L66.88,93.62a3.41,3.41,0,0,0-3.44,0l-14.09,8.13a3.44,3.44,0,0,0-1.72,3V121a3.44,3.44,0,0,0,1.72,3l14.09,8.13a3.45,3.45,0,0,0,3.44,0ZM65.65,95.74l14.09,8.13a1,1,0,0,1,.49.86V121a1,1,0,0,1-.49.86L65.65,130a1,1,0,0,1-1,0l-14.08-8.13a1,1,0,0,1-.49-.86V104.73a1,1,0,0,1,.49-.86l14.08-8.13a1,1,0,0,1,.5-.13A1,1,0,0,1,65.65,95.74Z"/><path class="cls-3" d="M2,150.7l29.77-17.19a4,4,0,0,0,2-3.46V95.67a4,4,0,0,0-2-3.46L2,75a4,4,0,0,0-4,0L-31.77,92.21a4,4,0,0,0-2,3.46v34.38a4,4,0,0,0,2,3.46L-2,150.7a4,4,0,0,0,2,.54A4,4,0,0,0,2,150.7ZM.77,77.14,30.55,94.33a1.57,1.57,0,0,1,.77,1.34v34.38a1.57,1.57,0,0,1-.77,1.34L.77,148.58a1.57,1.57,0,0,1-1.54,0l-29.78-17.19a1.57,1.57,0,0,1-.77-1.34V95.67a1.57,1.57,0,0,1,.77-1.34L-.77,77.14a1.61,1.61,0,0,1,.77-.2A1.61,1.61,0,0,1,.77,77.14Z"/><path class="cls-3" d="M1.86,141.41l21.93-12.67a3.71,3.71,0,0,0,1.86-3.22V100.2A3.71,3.71,0,0,0,23.79,97L1.86,84.31a3.74,3.74,0,0,0-3.72,0L-23.79,97a3.71,3.71,0,0,0-1.86,3.22v25.32a3.71,3.71,0,0,0,1.86,3.22l21.93,12.67A3.72,3.72,0,0,0,0,141.9,3.72,3.72,0,0,0,1.86,141.41Zm-1.23-55L22.57,99.1a1.28,1.28,0,0,1,.63,1.1v25.32a1.28,1.28,0,0,1-.63,1.1L.63,139.28a1.24,1.24,0,0,1-1.26,0l-21.94-12.66a1.28,1.28,0,0,1-.63-1.1V100.2a1.28,1.28,0,0,1,.63-1.1L-.63,86.44A1.27,1.27,0,0,1,0,86.27,1.27,1.27,0,0,1,.63,86.44Z"/><path class="cls-3" d="M1.72,132.1,15.8,124a3.44,3.44,0,0,0,1.72-3V104.73a3.42,3.42,0,0,0-1.72-3L1.72,93.62a3.41,3.41,0,0,0-3.44,0l-14.09,8.13a3.44,3.44,0,0,0-1.72,3V121a3.44,3.44,0,0,0,1.72,3l14.09,8.13a3.39,3.39,0,0,0,1.72.46A3.41,3.41,0,0,0,1.72,132.1ZM.49,95.74l14.09,8.13a1,1,0,0,1,.49.86V121a1,1,0,0,1-.49.86L.49,130a1,1,0,0,1-1,0l-14.08-8.13a1,1,0,0,1-.49-.86V104.73a1,1,0,0,1,.49-.86L-.5,95.74a1,1,0,0,1,.5-.13A1,1,0,0,1,.49,95.74Z"/><path class="cls-3" d="M99.74,94.27l29.77-17.19a4,4,0,0,0,2-3.46V39.24a4,4,0,0,0-2-3.46L99.74,18.59a4,4,0,0,0-4,0L66,35.78a4,4,0,0,0-2,3.46V73.62a4,4,0,0,0,2,3.46L95.74,94.27a4,4,0,0,0,4,0ZM98.51,20.71,128.29,37.9a1.57,1.57,0,0,1,.77,1.34V73.62a1.57,1.57,0,0,1-.77,1.34L98.51,92.15a1.57,1.57,0,0,1-1.54,0L67.19,75a1.57,1.57,0,0,1-.77-1.34V39.24a1.57,1.57,0,0,1,.77-1.34L97,20.71a1.58,1.58,0,0,1,1.54,0Z"/><path class="cls-3" d="M34.58,94.27,64.35,77.08a4,4,0,0,0,2-3.46V39.24a4,4,0,0,0-2-3.46L34.58,18.59a4,4,0,0,0-4,0L.81,35.78a4,4,0,0,0-2,3.46V73.62a4,4,0,0,0,2,3.46L30.58,94.27a4,4,0,0,0,4,0ZM33.35,20.71,63.13,37.9a1.57,1.57,0,0,1,.77,1.34V73.62A1.57,1.57,0,0,1,63.13,75L33.35,92.15a1.57,1.57,0,0,1-1.54,0L2,75a1.57,1.57,0,0,1-.77-1.34V39.24A1.57,1.57,0,0,1,2,37.9L31.81,20.71a1.58,1.58,0,0,1,1.54,0Z"/><path class="cls-3" d="M34.44,85,56.37,72.31a3.71,3.71,0,0,0,1.86-3.22V43.77a3.71,3.71,0,0,0-1.86-3.22L34.44,27.88a3.74,3.74,0,0,0-3.72,0L8.79,40.55a3.71,3.71,0,0,0-1.86,3.22V69.09a3.71,3.71,0,0,0,1.86,3.22L30.72,85a3.78,3.78,0,0,0,3.72,0ZM33.21,30,55.15,42.67a1.28,1.28,0,0,1,.63,1.1V69.09a1.28,1.28,0,0,1-.63,1.1L33.21,82.85a1.24,1.24,0,0,1-1.26,0L10,70.19a1.28,1.28,0,0,1-.63-1.1V43.77a1.28,1.28,0,0,1,.63-1.1L32,30a1.25,1.25,0,0,1,1.26,0Z"/><path class="cls-3" d="M34.3,75.67l14.08-8.13a3.44,3.44,0,0,0,1.72-3V48.3a3.42,3.42,0,0,0-1.72-3L34.3,37.19a3.41,3.41,0,0,0-3.44,0L16.77,45.32a3.44,3.44,0,0,0-1.72,3V64.56a3.44,3.44,0,0,0,1.72,3l14.09,8.13a3.45,3.45,0,0,0,3.44,0ZM33.07,39.31l14.09,8.13a1,1,0,0,1,.49.86V64.56a1,1,0,0,1-.49.86L33.07,73.55a1,1,0,0,1-1,0L18,65.42a1,1,0,0,1-.49-.86V48.3a1,1,0,0,1,.49-.86l14.08-8.13a1,1,0,0,1,.5-.13A1,1,0,0,1,33.07,39.31Z"/><path class="cls-3" d="M-30.58,94.27-.81,77.08a4,4,0,0,0,2-3.46V39.24a4,4,0,0,0-2-3.46L-30.58,18.59a4,4,0,0,0-4,0L-64.35,35.78a4,4,0,0,0-2,3.46V73.62a4,4,0,0,0,2,3.46l29.77,17.19a4,4,0,0,0,2,.54A4,4,0,0,0-30.58,94.27Zm-1.23-73.56L-2,37.9a1.57,1.57,0,0,1,.77,1.34V73.62A1.57,1.57,0,0,1-2,75L-31.81,92.15a1.57,1.57,0,0,1-1.54,0L-63.13,75a1.57,1.57,0,0,1-.77-1.34V39.24a1.57,1.57,0,0,1,.77-1.34l29.78-17.19a1.61,1.61,0,0,1,.77-.2A1.61,1.61,0,0,1-31.81,20.71Z"/><path class="cls-3" d="M67.16,37.84,96.93,20.65a4,4,0,0,0,2-3.46V-17.19a4,4,0,0,0-2-3.46L67.16-37.84a4,4,0,0,0-4,0L33.39-20.65a4,4,0,0,0-2,3.46V17.19a4,4,0,0,0,2,3.46L63.16,37.84a4,4,0,0,0,4,0ZM65.93-35.72,95.71-18.53a1.57,1.57,0,0,1,.77,1.34V17.19a1.57,1.57,0,0,1-.77,1.34L65.93,35.72a1.57,1.57,0,0,1-1.54,0L34.61,18.53a1.57,1.57,0,0,1-.77-1.34V-17.19a1.57,1.57,0,0,1,.77-1.34L64.39-35.72a1.61,1.61,0,0,1,.77-.2A1.61,1.61,0,0,1,65.93-35.72Z"/><path class="cls-3" d="M67,28.55,89,15.88a3.71,3.71,0,0,0,1.86-3.22V-12.66A3.71,3.71,0,0,0,89-15.88L67-28.55a3.74,3.74,0,0,0-3.72,0L41.37-15.88a3.71,3.71,0,0,0-1.86,3.22V12.66a3.71,3.71,0,0,0,1.86,3.22L63.3,28.55a3.78,3.78,0,0,0,3.72,0Zm-1.23-55L87.73-13.76a1.28,1.28,0,0,1,.63,1.1V12.66a1.28,1.28,0,0,1-.63,1.1L65.79,26.42a1.24,1.24,0,0,1-1.26,0L42.59,13.76a1.28,1.28,0,0,1-.63-1.1V-12.66a1.28,1.28,0,0,1,.63-1.1L64.53-26.42a1.27,1.27,0,0,1,.63-.17A1.27,1.27,0,0,1,65.79-26.42Z"/><path class="cls-3" d="M66.88,19.24,81,11.11a3.44,3.44,0,0,0,1.72-3V-8.13a3.42,3.42,0,0,0-1.72-3L66.88-19.24a3.41,3.41,0,0,0-3.44,0L49.35-11.11a3.44,3.44,0,0,0-1.72,3V8.13a3.44,3.44,0,0,0,1.72,3l14.09,8.13a3.45,3.45,0,0,0,3.44,0ZM65.65-17.12,79.74-9a1,1,0,0,1,.49.86V8.13a1,1,0,0,1-.49.86L65.65,17.12a1,1,0,0,1-1,0L50.58,9a1,1,0,0,1-.49-.86V-8.13A1,1,0,0,1,50.58-9l14.08-8.13a1,1,0,0,1,.5-.13A1,1,0,0,1,65.65-17.12Z"/><path class="cls-3" d="M2,37.84,31.77,20.65a4,4,0,0,0,2-3.46V-17.19a4,4,0,0,0-2-3.46L2-37.84a4,4,0,0,0-4,0L-31.77-20.65a4,4,0,0,0-2,3.46V17.19a4,4,0,0,0,2,3.46L-2,37.84a4,4,0,0,0,2,.54A4,4,0,0,0,2,37.84ZM.77-35.72,30.55-18.53a1.57,1.57,0,0,1,.77,1.34V17.19a1.57,1.57,0,0,1-.77,1.34L.77,35.72a1.57,1.57,0,0,1-1.54,0L-30.55,18.53a1.57,1.57,0,0,1-.77-1.34V-17.19a1.57,1.57,0,0,1,.77-1.34L-.77-35.72a1.61,1.61,0,0,1,.77-.2A1.61,1.61,0,0,1,.77-35.72Z"/><path class="cls-3" d="M1.86,28.55,23.79,15.88a3.71,3.71,0,0,0,1.86-3.22V-12.66a3.71,3.71,0,0,0-1.86-3.22L1.86-28.55a3.74,3.74,0,0,0-3.72,0L-23.79-15.88a3.71,3.71,0,0,0-1.86,3.22V12.66a3.71,3.71,0,0,0,1.86,3.22L-1.86,28.55A3.72,3.72,0,0,0,0,29,3.72,3.72,0,0,0,1.86,28.55Zm-1.23-55L22.57-13.76a1.28,1.28,0,0,1,.63,1.1V12.66a1.28,1.28,0,0,1-.63,1.1L.63,26.42a1.24,1.24,0,0,1-1.26,0L-22.57,13.76a1.28,1.28,0,0,1-.63-1.1V-12.66a1.28,1.28,0,0,1,.63-1.1L-.63-26.42A1.27,1.27,0,0,1,0-26.59,1.27,1.27,0,0,1,.63-26.42Z"/><path class="cls-3" d="M1.72,19.24,15.8,11.11a3.44,3.44,0,0,0,1.72-3V-8.13a3.42,3.42,0,0,0-1.72-3L1.72-19.24a3.41,3.41,0,0,0-3.44,0l-14.09,8.13a3.44,3.44,0,0,0-1.72,3V8.13a3.44,3.44,0,0,0,1.72,3l14.09,8.13A3.39,3.39,0,0,0,0,19.7,3.41,3.41,0,0,0,1.72,19.24ZM.49-17.12,14.58-9a1,1,0,0,1,.49.86V8.13a1,1,0,0,1-.49.86L.49,17.12a1,1,0,0,1-1,0L-14.58,9a1,1,0,0,1-.49-.86V-8.13A1,1,0,0,1-14.58-9L-.5-17.12a1,1,0,0,1,.5-.13A1,1,0,0,1,.49-17.12Z"/></pattern></defs><g id="Layer_3" data-name="Layer 3"><g class="cls-4"><polygon class="cls-5" points="2.06 0 1602.06 0 1602.06 900 2.06 900 2.06 0"/></g></g></svg>