<svg width="166" height="188" viewBox="0 0 166 188" fill="none" xmlns="http://www.w3.org/2000/svg">
<g clip-path="url(#clip0)">
<path d="M83.57 187.65C81.8534 187.649 80.1671 187.197 78.68 186.34L5.89 144.34C4.40164 143.478 3.16624 142.24 2.30789 140.75C1.44954 139.26 0.998472 137.57 1 135.85V51.85C1.00198 50.1336 1.45471 48.4478 2.31288 46.9614C3.17106 45.4749 4.40458 44.2399 5.89 43.38L78.68 1.37999C80.1675 0.529284 81.8514 0.0817871 83.565 0.0817871C85.2786 0.0817871 86.9625 0.529284 88.45 1.37999L161.25 43.38C162.733 44.242 163.964 45.4777 164.82 46.9639C165.676 48.4501 166.128 50.1348 166.13 51.85V135.9C166.128 137.615 165.676 139.3 164.82 140.786C163.964 142.272 162.733 143.508 161.25 144.37L88.45 186.37C86.9642 187.218 85.2809 187.66 83.57 187.65ZM83.57 5.99999C82.9066 5.99468 82.254 6.16734 81.68 6.49999L8.89 48.5C8.31078 48.8332 7.83052 49.3144 7.49842 49.8942C7.16632 50.4741 6.99431 51.1318 7 51.8V135.85C6.99962 136.513 7.17415 137.165 7.50598 137.739C7.83781 138.313 8.31521 138.789 8.89 139.12L81.68 181.12C82.2538 181.449 82.9036 181.622 83.565 181.622C84.2264 181.622 84.8762 181.449 85.45 181.12L158.25 139.12C158.822 138.787 159.297 138.31 159.627 137.736C159.957 137.162 160.13 136.512 160.13 135.85V51.85C160.13 51.188 159.957 50.5376 159.627 49.9637C159.297 49.3899 158.822 48.9127 158.25 48.58L85.45 6.57999C84.8872 6.22053 84.2375 6.02011 83.57 5.99999Z" fill="#6CAADD"/>
<path d="M83.57 164.84C81.9657 164.844 80.3888 164.423 79 163.62L25.38 132.62C23.9981 131.82 22.8505 130.671 22.0521 129.288C21.2536 127.905 20.8322 126.337 20.83 124.74V62.86C20.8367 61.2644 21.2624 59.6985 22.0644 58.3191C22.8664 56.9397 24.0167 55.7951 25.4 55L79 24C80.3825 23.2041 81.9498 22.7852 83.545 22.7852C85.1402 22.7852 86.7075 23.2041 88.09 24L141.72 55C143.1 55.8 144.246 56.9476 145.044 58.3284C145.842 59.7092 146.265 61.275 146.27 62.87V124.79C146.266 126.386 145.844 127.954 145.045 129.336C144.247 130.719 143.101 131.868 141.72 132.67L88.09 163.67C86.7113 164.448 85.153 164.851 83.57 164.84ZM83.57 28.84C83.0266 28.8407 82.4927 28.9819 82.02 29.25L28.4 60.25C27.9301 60.5224 27.5398 60.9132 27.2678 61.3834C26.9959 61.8536 26.8518 62.3868 26.85 62.93V124.85C26.8501 125.395 26.9933 125.93 27.2653 126.402C27.5374 126.874 27.9287 127.267 28.4 127.54L82 158.42C82.4684 158.695 83.0018 158.84 83.545 158.84C84.0882 158.84 84.6216 158.695 85.09 158.42L138.72 127.42C139.191 127.148 139.581 126.758 139.854 126.287C140.126 125.817 140.269 125.283 140.27 124.74V62.86C140.266 62.3172 140.121 61.7848 139.85 61.3149C139.578 60.8451 139.189 60.4539 138.72 60.18L85.09 29.18C84.623 28.9295 84.0999 28.8022 83.57 28.81V28.84Z" fill="#6CAADD"/>
<path d="M83.56 142C82.0819 141.998 80.6302 141.609 79.35 140.87L44.92 121C43.6435 120.258 42.5839 119.195 41.8469 117.916C41.1099 116.636 40.7213 115.186 40.72 113.71V74C40.7203 72.5235 41.1085 71.073 41.8456 69.7936C42.5826 68.5142 43.6428 67.4509 44.92 66.71L79.36 46.78C80.6388 46.0428 82.0889 45.6548 83.565 45.6548C85.0411 45.6548 86.4912 46.0428 87.77 46.78L122.2 66.66C123.487 67.4031 124.555 68.4736 125.294 69.7627C126.033 71.0519 126.418 72.5138 126.41 74V113.7C126.409 115.176 126.02 116.626 125.283 117.906C124.546 119.185 123.486 120.248 122.21 120.99L87.77 140.87C86.4904 141.61 85.0383 142 83.56 142ZM83.56 51.65C83.1392 51.6518 82.7259 51.762 82.36 51.97L47.92 71.85C47.554 72.0648 47.2507 72.3717 47.0402 72.7401C46.8296 73.1085 46.7193 73.5257 46.72 73.95V113.7C46.7202 114.124 46.8311 114.541 47.0415 114.909C47.2519 115.277 47.5547 115.584 47.92 115.8L82.36 135.68C82.7264 135.892 83.142 136.003 83.565 136.003C83.988 136.003 84.4036 135.892 84.77 135.68L119.21 115.8C119.575 115.584 119.878 115.277 120.089 114.909C120.299 114.541 120.41 114.124 120.41 113.7V74C120.412 73.5743 120.301 73.1557 120.088 72.7868C119.876 72.418 119.569 72.112 119.2 71.9L84.77 52C84.4039 51.7803 83.9869 51.6597 83.56 51.65Z" fill="#6CAADD"/>
</g>
<defs>
<clipPath id="clip0">
<rect width="165.13" height="187.65" fill="white"/>
</clipPath>
</defs>
</svg>
